<?xml version="1.0" encoding="UTF-8"?>
<svg xmlns="http://www.w3.org/2000/svg" xmlns:xlink="http://www.w3.org/1999/xlink" width="256pt" height="256pt" viewBox="0 0 256 256" version="1.1">
<g id="surface1">
<path style=" stroke:none;fill-rule:nonzero;fill:rgb(78.431373%,21.568627%,21.568627%);fill-opacity:1;" d="M 127.976562 0.03125 C 93.605469 0.03125 62.03125 13.128906 37.671875 37.484375 C 13.316406 61.839844 0.21875 93.417969 0.21875 127.789062 C 0.21875 162.160156 13.316406 193.734375 37.671875 218.089844 C 58.125 238.542969 83.6875 251.058594 112.617188 254.78125 C 123.976562 256.246094 141.390625 255.503906 153.804688 253.03125 C 198.496094 244.125 236.679688 209.507812 250.0625 165.765625 C 264.101562 119.871094 252.058594 71.261719 218.28125 37.484375 C 193.921875 13.128906 162.347656 0.03125 127.976562 0.03125 Z M 126.8125 10.050781 C 145.300781 9.882812 163.777344 14.070312 180.617188 22.507812 C 203.695312 34.070312 221.695312 52.066406 233.257812 75.148438 C 249.878906 108.324219 249.878906 147.253906 233.257812 180.429688 C 227.457031 192.003906 221.679688 200.144531 212.476562 209.703125 C 193.003906 229.929688 167.222656 242.261719 138.546875 245.0625 C 117.160156 247.152344 95.089844 242.964844 75.335938 233.066406 C 63.757812 227.269531 55.621094 221.492188 46.0625 212.289062 C 9.191406 176.796875 -0.304688 121.058594 22.695312 75.148438 C 36.523438 47.550781 60.273438 26.671875 89.363281 16.546875 C 101.507812 12.320312 114.164062 10.167969 126.8125 10.050781 Z M 126.8125 10.050781 "/>
<path style=" stroke:none;fill-rule:nonzero;fill:rgb(83.137255%,33.333333%,0%);fill-opacity:1;" d="M 70.527344 183.753906 L 70.808594 183.898438 C 70.878906 183.933594 71.003906 184.003906 71.125 184.074219 C 71.632812 184.292969 72.222656 184.421875 72.828125 184.449219 L 73.097656 184.445312 L 84.925781 184.449219 C 86.273438 184.449219 87.542969 183.929688 88.492188 182.980469 C 89.441406 182.035156 89.964844 180.777344 89.960938 179.4375 C 89.960938 176.667969 87.695312 174.421875 84.910156 174.421875 L 78.070312 174.421875 L 78.070312 144.261719 C 78.097656 143.777344 78.074219 143.351562 78 142.996094 C 77.746094 141.429688 76.921875 140.167969 75.714844 139.402344 L 75.125 138.929688 L 64.160156 127.960938 L 76.347656 115.761719 C 76.964844 115.214844 77.414062 114.585938 77.691406 113.894531 C 77.824219 113.582031 77.875 113.332031 77.9375 113.089844 L 78.003906 112.855469 C 78.0625 112.484375 78.09375 111.9375 78.074219 111.480469 L 78.078125 80.902344 L 84.917969 80.902344 C 87.75 80.902344 89.964844 78.769531 89.964844 76.046875 C 89.964844 74.71875 89.449219 73.476562 88.511719 72.550781 C 87.5625 71.613281 86.289062 71.101562 84.929688 71.101562 L 73.039062 71.171875 C 72.40625 71.171875 71.785156 71.296875 71.175781 71.535156 C 71.007812 71.640625 70.890625 71.707031 70.773438 71.769531 L 70.503906 71.90625 C 70.398438 71.957031 70.289062 72.003906 70.191406 72.066406 C 69.996094 72.199219 69.804688 72.382812 69.609375 72.566406 L 69.359375 72.777344 C 69.210938 72.9375 69.046875 73.144531 68.886719 73.371094 L 68.761719 73.550781 C 68.644531 73.753906 68.542969 73.964844 68.441406 74.175781 L 68.335938 74.386719 C 68.277344 74.546875 68.246094 74.71875 68.203125 74.882812 C 68.164062 75.042969 68.109375 75.207031 68.054688 75.375 C 68.015625 75.539062 67.964844 75.722656 67.910156 75.90625 C 67.890625 75.957031 67.898438 75.894531 67.90625 75.828125 C 67.871094 76.1875 67.789062 76.496094 67.710938 76.734375 L 67.855469 109.847656 L 53.625 124.164062 C 52.664062 125.125 52.15625 126.425781 52.183594 127.839844 L 52.183594 128.015625 C 52.140625 129.417969 52.667969 130.738281 53.667969 131.738281 L 67.859375 146.054688 L 67.710938 178.894531 C 67.792969 179.144531 67.871094 179.449219 67.90625 179.808594 C 67.914062 179.914062 67.933594 180.019531 67.957031 180.125 C 68.023438 180.285156 68.082031 180.445312 68.125 180.601562 C 68.1875 180.828125 68.234375 181.023438 68.296875 181.203125 C 68.355469 181.304688 68.402344 181.402344 68.449219 181.503906 C 68.53125 181.683594 68.625 181.875 68.734375 182.058594 L 68.914062 182.324219 C 69.058594 182.53125 69.207031 182.710938 69.347656 182.863281 C 69.4375 182.933594 69.519531 183.007812 69.601562 183.082031 C 69.789062 183.257812 69.972656 183.433594 70.183594 183.574219 C 70.296875 183.648438 70.414062 183.699219 70.523438 183.753906 Z M 70.527344 183.753906 "/>
<path style=" stroke:none;fill-rule:nonzero;fill:rgb(83.137255%,33.333333%,0%);fill-opacity:1;" d="M 207.863281 127.707031 C 207.90625 126.136719 207.378906 124.8125 206.378906 123.8125 L 192.191406 109.496094 L 192.339844 76.65625 C 192.257812 76.40625 192.179688 76.097656 192.144531 75.734375 C 192.136719 75.640625 192.117188 75.535156 192.097656 75.429688 C 192.023438 75.253906 191.964844 75.082031 191.917969 74.90625 C 191.867188 74.714844 191.8125 74.523438 191.75 74.34375 C 191.691406 74.238281 191.640625 74.128906 191.589844 74.019531 C 191.5 73.820312 191.402344 73.628906 191.300781 73.460938 L 191.144531 73.234375 C 191.011719 73.042969 190.859375 72.851562 190.703125 72.6875 C 190.613281 72.613281 190.53125 72.542969 190.449219 72.46875 C 190.261719 72.292969 190.070312 72.113281 189.851562 71.964844 C 189.730469 71.886719 189.605469 71.832031 189.488281 71.773438 L 189.273438 71.667969 C 189.164062 71.609375 189.023438 71.53125 188.886719 71.453125 C 188.417969 71.253906 187.835938 71.125 187.226562 71.101562 L 186.953125 71.105469 L 175.125 71.097656 C 173.777344 71.097656 172.507812 71.621094 171.558594 72.566406 C 170.609375 73.511719 170.085938 74.769531 170.085938 76.109375 C 170.085938 78.878906 172.351562 81.125 175.140625 81.125 L 181.976562 81.125 L 181.976562 111.289062 C 181.949219 111.769531 181.972656 112.195312 182.046875 112.550781 C 182.300781 114.117188 183.125 115.378906 184.332031 116.144531 L 184.921875 116.617188 L 195.890625 127.582031 L 183.699219 139.785156 C 183.085938 140.332031 182.632812 140.960938 182.359375 141.648438 C 182.226562 141.957031 182.175781 142.203125 182.117188 142.449219 L 182.046875 142.695312 C 181.984375 143.070312 181.953125 143.617188 181.972656 144.0625 L 181.96875 174.644531 L 175.132812 174.644531 C 172.300781 174.644531 170.082031 176.777344 170.082031 179.5 C 170.082031 180.832031 170.597656 182.070312 171.539062 183 C 172.484375 183.933594 173.753906 184.445312 175.113281 184.449219 L 187.007812 184.375 C 187.636719 184.375 188.261719 184.253906 188.867188 184.011719 L 189.554688 183.636719 C 189.660156 183.582031 189.773438 183.53125 189.875 183.46875 C 190.042969 183.351562 190.246094 183.164062 190.453125 182.976562 L 190.6875 182.773438 C 190.835938 182.609375 191.003906 182.402344 191.15625 182.179688 L 191.285156 181.996094 C 191.402344 181.796875 191.503906 181.585938 191.605469 181.371094 L 191.707031 181.171875 C 191.769531 181 191.804688 180.820312 191.851562 180.640625 C 191.886719 180.496094 191.9375 180.335938 191.992188 180.175781 C 192.035156 180 192.085938 179.824219 192.140625 179.644531 C 192.160156 179.597656 192.148438 179.667969 192.140625 179.746094 C 192.175781 179.371094 192.257812 179.058594 192.339844 178.8125 L 192.191406 145.707031 L 206.425781 131.390625 C 207.382812 130.429688 207.890625 129.125 207.863281 127.707031 Z M 207.863281 127.707031 "/>
<path style=" stroke:none;fill-rule:nonzero;fill:rgb(78.431373%,21.568627%,21.568627%);fill-opacity:1;" d="M 158.667969 51.042969 C 158.054688 50.546875 157.132812 49.957031 156.234375 49.957031 L 155.84375 49.941406 L 121.84375 46.757812 C 121.761719 46.769531 121.667969 46.789062 121.574219 46.800781 C 121.488281 46.816406 121.40625 46.828125 121.324219 46.839844 C 121.074219 46.933594 120.839844 47 120.609375 47.046875 C 120.402344 47.089844 120.207031 47.132812 120.023438 47.191406 C 119.929688 47.226562 119.824219 47.285156 119.71875 47.339844 L 119.105469 47.625 C 118.890625 47.742188 118.675781 47.914062 118.460938 48.082031 L 118.21875 48.261719 C 118.09375 48.375 117.910156 48.566406 117.703125 48.8125 L 117.578125 48.953125 C 117.433594 49.152344 117.300781 49.378906 117.191406 49.566406 L 117.070312 49.773438 C 116.972656 49.988281 116.917969 50.171875 116.855469 50.347656 C 116.820312 50.449219 116.777344 50.558594 116.730469 50.667969 C 116.726562 50.707031 116.71875 50.769531 116.707031 50.832031 L 116.660156 51.140625 C 116.632812 51.28125 116.601562 51.441406 116.566406 51.597656 L 104.921875 178.203125 C 104.707031 179.679688 105.089844 181.097656 106.015625 182.191406 L 121.320312 200.386719 C 121.378906 200.480469 121.433594 200.582031 121.503906 200.671875 C 122.476562 201.828125 123.882812 202.484375 125.378906 202.484375 C 126.578125 202.484375 127.695312 202.078125 128.613281 201.300781 L 147.105469 185.746094 C 147.296875 185.585938 147.503906 185.371094 147.738281 185.085938 L 147.851562 184.945312 C 148.488281 184.082031 148.816406 183.15625 148.871094 182.160156 L 157.808594 84.875 L 157.890625 84.578125 C 157.992188 84.214844 158.046875 83.941406 158.066406 83.703125 C 158.085938 83.476562 158.078125 83.21875 158.050781 82.875 L 158.019531 82.566406 L 160.523438 55.386719 C 160.667969 53.734375 159.972656 52.101562 158.667969 51.042969 Z M 139.273438 176.433594 L 115.40625 174.367188 L 123.554688 85.746094 L 147.414062 87.816406 Z M 148.332031 77.769531 L 124.46875 75.707031 L 126.152344 57.484375 L 150.007812 59.554688 Z M 148.332031 77.769531 "/>
</g>
</svg>
